<svg id="_404-img" data-name="404-img" xmlns="http://www.w3.org/2000/svg" width="772" height="536.645" viewBox="0 0 772 536.645">
  <path id="Path_1" data-name="Path 1" d="M580.11,479.306H129.346v3.563H580.11Z" fill="#e89207"/>
  <path id="Path_2" data-name="Path 2" d="M772,479.306H746.559v3.563H772Z" fill="#e89207"/>
  <path id="Path_3" data-name="Path 3" d="M158.391,424.532l3.872,56.556h61.525l-4.143-60.751Z" fill="#e89207"/>
  <path id="Path_4" data-name="Path 4" d="M225.7,482.87H160.6l-4.108-59.995,64.81-4.439Zm-61.77-3.564h57.955l-3.894-57.069-57.7,3.952Z" fill="#e89207"/>
  <path id="Path_5" data-name="Path 5" d="M107.475,481.088l71.077-173.017-56.816-17.016L43.25,481.088Z" fill="#e89207"/>
  <path id="Path_6" data-name="Path 6" d="M108.671,482.87H40.588l80.118-193.985,60.244,18.042Zm-62.755-3.564h60.365l69.874-170.093-53.387-15.989Z" fill="#e89207"/>
  <path id="Path_7" data-name="Path 7" d="M252.514,481.088h66.925c-.255-2.7-.485-5.46-.684-8.3q-3.315-49.233,8.147-73.458,11.541-24.171,34.639-25.724,22.586-1.631,36.82,20.858c9.546,15,15.345,38.857,17.64,71.69.349,5.189.572,10.157.681,14.931H484.49c.018-6.371-.174-12.873-.639-19.547a252.178,252.178,0,0,0-10.738-59.433q-8.558-27.008-24.037-46.063A101.117,101.117,0,0,0,411,327.161c-15.07-6.5-32.451-9.149-52.252-7.8q-30.231,2.068-51.42,14.883a99.823,99.823,0,0,0-33.995,33.748c-8.6,13.976-14.574,30.256-18.111,48.9a240.146,240.146,0,0,0-3.005,60.453C252.306,478.6,252.414,479.84,252.514,481.088Z" fill="#fff"/>
  <path id="Path_8" data-name="Path 8" d="M486.265,482.869H414.939l-.041-1.74c-.112-4.846-.339-9.842-.677-14.853-2.269-32.476-8.113-56.315-17.365-70.854-9.054-14.346-20.9-21.07-35.187-20.038-14.852,1-25.7,9.084-33.16,24.714-7.468,15.831-10.154,40.249-7.978,72.572.2,2.817.426,5.561.681,8.25l.183,1.949H250.866l-.214-2.664c-.075-.914-.148-1.824-.21-2.747a242.962,242.962,0,0,1,3.029-60.9c3.585-18.894,9.756-35.548,18.345-49.511A101.959,101.959,0,0,1,306.4,332.717c14.352-8.657,31.922-13.75,52.224-15.138,19.863-1.349,37.715,1.324,53.079,7.946a103.382,103.382,0,0,1,38.746,29.388c10.4,12.773,18.6,28.47,24.358,46.659a254.647,254.647,0,0,1,10.816,59.852c.446,6.409.661,13.029.642,19.671Zm-67.848-3.563h64.29c-.022-5.959-.234-11.886-.635-17.642a251.141,251.141,0,0,0-10.656-59.018c-5.625-17.759-13.607-33.059-23.721-45.477a99.865,99.865,0,0,0-37.407-28.378c-14.829-6.39-32.13-8.968-51.416-7.657-19.732,1.349-36.764,6.273-50.62,14.63a98.473,98.473,0,0,0-33.394,33.148c-8.366,13.6-14.38,29.851-17.884,48.307a239.332,239.332,0,0,0-2.975,60c.046.7.1,1.4.156,2.091h63.331c-.185-2.092-.357-4.218-.51-6.392-2.217-32.94.581-57.951,8.313-74.343,7.96-16.67,20.117-25.664,36.133-26.742,1.051-.075,2.1-.114,3.134-.114,14.3,0,26.181,7.333,35.31,21.8,9.706,15.253,15.565,38.975,17.912,72.518C418.081,470.5,418.294,474.958,418.417,479.306Z" fill="#e89207"/>
  <path id="Path_9" data-name="Path 9" d="M733.641,481.088l-4.531-28.077-31.945,2.165-4.844-71.021-61.254,4.2,4.857,70.934-63.462,4.394L651.313,271.9l-56.9-17.028-93.43,226.215Z" fill="#e89207"/>
  <path id="Path_10" data-name="Path 10" d="M735.737,482.87H498.32L593.384,252.7l60.328,18.053L575.2,461.7l58.822-4.072-4.858-70.938,64.812-4.439,4.845,71.022,31.786-2.156Zm-232.089-3.564h227.9l-3.94-24.408-32.1,2.178-4.845-71.018-57.7,3.952,4.858,70.935-68.1,4.711,79.193-192.611-53.472-16Z" fill="#e89207"/>
  <path id="Path_11" data-name="Path 11" d="M387.624,336.4c.613,7.6-14.88,15.044-34.6,16.631s-36.208-3.28-36.819-10.877,14.879-15.043,34.6-16.632S387.011,328.8,387.624,336.4Z" fill="#fbb84e"/>
  <path id="Path_12" data-name="Path 12" d="M422.35,340.65c-1.1,3.065-7.764,3.479-14.889.925s-12.008-7.108-10.91-10.173,7.763-3.478,14.888-.925S423.447,337.587,422.35,340.65Z" fill="#fbb84e"/>
  <path id="Path_13" data-name="Path 13" d="M21.383,479.306H0v3.564H21.383Z" fill="#e89207"/>
  <path id="Path_14" data-name="Path 14" d="M110.9,508.369H89.988v3.564H110.9Z" fill="#e89207"/>
  <path id="Path_15" data-name="Path 15" d="M178.551,508.369H140.775v3.564h37.776Z" fill="#e89207"/>
  <path id="Path_16" data-name="Path 16" d="M596.952,508.369H580.107v3.564h16.845Z" fill="#e89207"/>
  <path id="Path_17" data-name="Path 17" d="M690.507,508.369H617.318v3.564h73.189Z" fill="#e89207"/>
  <path id="Path_18" data-name="Path 18" d="M77.515,533.081H59.07v3.564H77.515Z" fill="#e89207"/>
  <path id="Path_19" data-name="Path 19" d="M718.127,533.081H699.682v3.564h18.445Z" fill="#e89207"/>
  <path id="Path_20" data-name="Path 20" d="M332.619,338.4h-.011a4.454,4.454,0,0,1-4.444-4.465c.093-38.9-11.5-64.414-14.48-69.16a4.422,4.422,0,0,1-1.231-2.227,4.562,4.562,0,0,1,1.6-4.519,4.5,4.5,0,0,1,4.726-.5c4.186,2.041,10.453,21.756,10.515,21.956a182.236,182.236,0,0,1,7.782,54.474A4.456,4.456,0,0,1,332.619,338.4Z" fill="#e89207"/>
  <path id="Path_21" data-name="Path 21" d="M438.564,288.3a4.453,4.453,0,0,1-3.218-7.534c3-3.15,10.79-13.514,7.344-19.528-3.605-6.289-18.151-11.955-26.473-14.047a4.455,4.455,0,0,1,2.167-8.643c2.578.647,25.382,6.645,32.036,18.262,7.473,13.044-7.974,29.427-8.636,30.118A4.456,4.456,0,0,1,438.564,288.3Z" fill="#e89207"/>
  <path id="Path_22" data-name="Path 22" d="M407.21,125.328a4.457,4.457,0,0,1-3.938-6.532L432.9,62.55a4.455,4.455,0,0,1,7.884,4.152l-29.629,56.246A4.45,4.45,0,0,1,407.21,125.328Z" fill="#e89207"/>
  <path id="Path_23" data-name="Path 23" d="M291.721,164.634a4.117,4.117,0,0,1-.469-.025l-71.575-7.494a4.455,4.455,0,0,1,.928-8.862l71.576,7.493a4.456,4.456,0,0,1-.46,8.888Z" fill="#e89207"/>
  <path id="Path_24" data-name="Path 24" d="M442.211,249.11,323.772,285.738a4.526,4.526,0,0,1-5.66-2.987L274.825,142.779a4.531,4.531,0,0,1,.31-3.43L290.4,110.08a4.521,4.521,0,0,1,2.674-2.231l96.247-29.764a4.524,4.524,0,0,1,5.659,2.987L445.2,243.45A4.525,4.525,0,0,1,442.211,249.11Z" fill="#fff"/>
  <path id="Path_25" data-name="Path 25" d="M322.434,287.723a6.277,6.277,0,0,1-6.023-4.444L273.122,143.306a6.259,6.259,0,0,1,.435-4.779l15.264-29.268a6.353,6.353,0,0,1,3.729-3.11L388.8,76.383a6.307,6.307,0,0,1,7.889,4.163L446.9,242.925a6.306,6.306,0,0,1-4.163,7.888L324.3,287.439A6.309,6.309,0,0,1,322.434,287.723ZM390.663,79.664a2.759,2.759,0,0,0-.813.123L293.6,109.553a2.748,2.748,0,0,0-1.622,1.352l-15.264,29.269a2.72,2.72,0,0,0-.189,2.079l43.287,139.971a2.767,2.767,0,0,0,3.43,1.812l118.441-36.628a2.742,2.742,0,0,0,1.811-3.43L393.281,81.6A2.728,2.728,0,0,0,390.663,79.664Z" fill="#e89207"/>
  <path id="Path_26" data-name="Path 26" d="M364.09,163.617c2.083,8.993-1.923,18.812-8.947,21.934s-14.406-1.639-16.489-10.631,1.925-18.812,8.947-21.934S362.007,154.623,364.09,163.617Z" fill="#fbb84e"/>
  <path id="Path_27" data-name="Path 27" d="M347.6,152.986a15.464,15.464,0,0,0-7.392,7.673A10.615,10.615,0,0,0,352.4,163.15a15.452,15.452,0,0,0,7.386-7.693A10.622,10.622,0,0,0,347.6,152.986Z" fill="#fffcf3"/>
  <path id="Path_28" data-name="Path 28" d="M291.4,108.815c-.052.046-.1.1-.144.146l-16.4,31.082a4.524,4.524,0,0,0-.185.834l20.1-6.215a4.421,4.421,0,0,0,2.917-5.528Z" fill="#fffcf3"/>
  <path id="Path_29" data-name="Path 29" d="M272.555,143.4l.345-2.742a6.394,6.394,0,0,1,.259-1.162l.119-.281L290,107.689a2.846,2.846,0,0,1,.215-.212l2.067-1.822,7.1,22.952a6.2,6.2,0,0,1-4.093,7.757Zm18.386-30.024L277.947,138l16.29-5.038a2.636,2.636,0,0,0,1.741-3.3Z" fill="#e89207"/>
  <path id="Path_30" data-name="Path 30" d="M368.689,133.213a3.755,3.755,0,1,1-4.182-3.271A3.757,3.757,0,0,1,368.689,133.213Z" fill="#fbb84e"/>
  <path id="Path_31" data-name="Path 31" d="M331.863,147.143a3.755,3.755,0,1,1-4.182-3.272A3.754,3.754,0,0,1,331.863,147.143Z" fill="#fbb84e"/>
  <path id="Path_32" data-name="Path 32" d="M168.05,126.357H102.7a6.44,6.44,0,0,1-4.658-2,6.309,6.309,0,0,1-1.741-4.717,13.968,13.968,0,0,1,.437-2.8,13.76,13.76,0,0,1,10.846-10.079,13.911,13.911,0,0,1,8.31,1.048,22.1,22.1,0,0,1,43.1-.358,12.878,12.878,0,0,1,3.724-.141,13.209,13.209,0,0,1,11.729,12.447,6.188,6.188,0,0,1-1.734,4.622A6.514,6.514,0,0,1,168.05,126.357ZM110.1,109.727a11.047,11.047,0,0,0-1.96.176,10.7,10.7,0,0,0-8.322,7.741,11.053,11.053,0,0,0-.339,2.161,3.15,3.15,0,0,0,.869,2.354,3.206,3.206,0,0,0,2.345,1.007H168.05a3.307,3.307,0,0,0,2.368-1,2.938,2.938,0,0,0,.847-2.153,10.148,10.148,0,0,0-8.883-9.528,9.83,9.83,0,0,0-4.14.444l-1.789.586-.285-1.86a18.906,18.906,0,0,0-37.487.855l-.285,2.685-2.213-1.548A10.557,10.557,0,0,0,110.1,109.727Z" fill="#fbb84e"/>
  <path id="Path_33" data-name="Path 33" d="M614.461,125.769H560.616a8.159,8.159,0,0,1-5.74-2.377,7.5,7.5,0,0,1-2.228-5.328,15.97,15.97,0,0,1,.266-2.835,15.6,15.6,0,0,1,11.221-12.14,15.4,15.4,0,0,1,7.776-.095,21.318,21.318,0,0,1,39.675,3.516,11.629,11.629,0,0,1,10.838,11.59A7.842,7.842,0,0,1,614.461,125.769ZM568.212,105.73a12.407,12.407,0,0,0-12.162,10.08,12.822,12.822,0,0,0-.214,2.265,4.311,4.311,0,0,0,1.3,3.065,4.942,4.942,0,0,0,3.482,1.44h53.845a4.693,4.693,0,0,0,4.774-4.421,8.447,8.447,0,0,0-8.425-8.484,2.981,2.981,0,0,1-.391.044l-1.343.061-.287-1.315a18.127,18.127,0,0,0-34.513-2.944l-.572,1.4-1.431-.5A12.346,12.346,0,0,0,568.212,105.73Z" fill="#fbb84e"/>
  <path id="Path_34" data-name="Path 34" d="M501.062,28.885h-.144a7.041,7.041,0,0,0-7.039-7.041V21.7a7.039,7.039,0,0,0,7.039-7.039h.144A7.039,7.039,0,0,0,508.1,21.7v.144A7.04,7.04,0,0,0,501.062,28.885Z" fill="#fff"/>
  <path id="Path_35" data-name="Path 35" d="M223.859,59.353h-.146a7.039,7.039,0,0,0-7.039-7.039v-.146a7.039,7.039,0,0,0,7.039-7.039h.146a7.039,7.039,0,0,0,7.04,7.039v.144A7.04,7.04,0,0,0,223.859,59.353Z" fill="#fff"/>
  <path id="Path_36" data-name="Path 36" d="M381.327,29.322h-.3a14.512,14.512,0,0,0-14.51-14.512v-.3A14.511,14.511,0,0,0,381.028,0h.3a14.511,14.511,0,0,0,14.511,14.51v.3A14.511,14.511,0,0,0,381.327,29.322Z" fill="#fbb84e"/>
  <path id="Path_37" data-name="Path 37" d="M540.97,99.233h-.217a10.568,10.568,0,0,0-10.567-10.567v-.217a10.568,10.568,0,0,0,10.567-10.567h.217a10.567,10.567,0,0,0,10.567,10.567v.217A10.567,10.567,0,0,0,540.97,99.233Z" fill="#fff"/>
  <path id="Path_38" data-name="Path 38" d="M129.454,131.549h-.217a10.567,10.567,0,0,0-10.567-10.567v-.218A10.567,10.567,0,0,0,129.237,110.2h.217a10.567,10.567,0,0,0,10.567,10.566v.218A10.566,10.566,0,0,0,129.454,131.549Z" fill="#fff"/>
</svg>
