<svg xmlns="http://www.w3.org/2000/svg" width="213.978" height="32.083" viewBox="0 0 213.978 32.083">
  <path id="icon-step2" d="M214.177,3.141a1,1,0,0,1,.675,1.243l-2.554,8.63a1,1,0,0,1-1.918-.568l2.27-7.671-7.671-2.27a1,1,0,1,1,.568-1.918ZM2.049,1.206Q3.2,2,4.442,2.8L3.357,4.48Q2.088,3.661.916,2.854ZM9.4,5.83q2.413,1.4,5.088,2.8L13.56,10.4Q10.851,8.981,8.4,7.561Zm10.3,5.414q2.561,1.225,5.31,2.429l-.8,1.833q-2.779-1.215-5.372-2.457ZM30.39,15.92q2.648,1.059,5.44,2.079l-.686,1.879q-2.819-1.029-5.5-2.1Zm10.943,4q2.722.9,5.56,1.758l-.576,1.915q-2.865-.861-5.615-1.775ZM52.5,23.275q2.779.751,5.654,1.443l-.468,1.944q-2.9-.7-5.707-1.457ZM63.838,26q2.817.6,5.715,1.128L69.191,29.1q-2.924-.536-5.768-1.139ZM75.3,28.1q2.852.443,5.773.816L80.817,30.9q-2.947-.376-5.827-.824Zm11.569,1.475q2.88.288,5.817.5l-.144,1.995q-2.965-.215-5.872-.506Zm11.643.844q2.884.13,5.818.182l-.036,2q-2.961-.052-5.872-.184Zm11.645.206q2.9-.028,5.833-.136l.074,2q-2.965.11-5.888.138Zm11.67-.433q2.882-.186,5.8-.455l.184,1.991q-2.946.272-5.856.46Zm11.594-1.07q2.877-.345,5.785-.775l.293,1.979q-2.936.434-5.84.782Zm11.55-1.709q2.844-.5,5.714-1.086l.4,1.96q-2.9.592-5.768,1.1Zm11.412-2.33q2.829-.658,5.68-1.4l.506,1.935q-2.877.752-5.733,1.416Zm11.283-2.947q2.779-.806,5.578-1.7l.607,1.905q-2.823.9-5.628,1.714Zm11.13-3.551q2.724-.948,5.461-1.982l.706,1.871q-2.762,1.043-5.509,2Zm10.893-4.113q2.687-1.094,5.384-2.273l.8,1.833q-2.721,1.189-5.43,2.293ZM200.37,9.808Q203,8.579,205.641,7.266l.891,1.791q-2.662,1.324-5.316,2.563Zm10.45-5.2q1.3-.684,2.6-1.39l.954,1.757q-1.308.711-2.616,1.4Z" transform="translate(-0.916 -0.546)" fill="#faa722" opacity="0.5"/>
</svg>
