<svg xmlns="http://www.w3.org/2000/svg" width="213.978" height="32.083" viewBox="0 0 213.978 32.083">
  <path id="icon-step1" d="M214.177,29.859a1,1,0,0,0,.675-1.243l-2.554-8.63a1,1,0,0,0-1.918.568l2.27,7.671-7.671,2.27a1,1,0,1,0,.568,1.918ZM2.049,31.794Q3.2,31,4.442,30.2L3.357,28.52q-1.268.82-2.441,1.626ZM9.4,27.17q2.413-1.4,5.088-2.8L13.56,22.6q-2.709,1.421-5.16,2.842Zm10.3-5.414q2.561-1.225,5.31-2.429l-.8-1.832q-2.779,1.215-5.372,2.457ZM30.39,17.08q2.648-1.059,5.44-2.079l-.686-1.879q-2.819,1.029-5.5,2.1Zm10.943-4q2.722-.9,5.56-1.758L46.318,9.41q-2.865.861-5.615,1.775ZM52.5,9.725q2.779-.751,5.654-1.443l-.468-1.945q-2.9.7-5.707,1.457ZM63.838,7q2.817-.6,5.715-1.128L69.191,3.9q-2.924.536-5.768,1.139ZM75.3,4.9q2.852-.443,5.773-.816L80.817,2.1q-2.947.376-5.827.824ZM86.867,3.421q2.88-.288,5.817-.5L92.54.924q-2.965.215-5.872.506ZM98.51,2.577q2.884-.13,5.818-.183l-.036-2q-2.961.052-5.872.184Zm11.645-.206q2.9.028,5.833.136l.074-2Q113.1.4,110.174.371Zm11.67.433q2.882.186,5.8.455l.184-1.992Q124.864,1,121.954.808Zm11.594,1.07q2.877.345,5.785.775l.293-1.978q-2.936-.434-5.84-.782Zm11.55,1.709q2.844.5,5.714,1.086l.4-1.96q-2.9-.592-5.768-1.1Zm11.412,2.33q2.829.658,5.68,1.4l.506-1.935q-2.877-.752-5.733-1.416Zm11.283,2.947q2.779.806,5.578,1.7l.607-1.905q-2.823-.9-5.628-1.714Zm11.13,3.551q2.724.948,5.461,1.982l.706-1.871q-2.762-1.043-5.509-2Zm10.893,4.113q2.687,1.094,5.384,2.273l.8-1.833q-2.721-1.189-5.43-2.292Zm10.683,4.668q2.631,1.229,5.271,2.542l.891-1.791q-2.662-1.324-5.316-2.563Zm10.45,5.2q1.3.684,2.6,1.39l.954-1.757q-1.308-.711-2.616-1.4Z" transform="translate(-0.916 -0.371)" fill="#faa722" opacity="0.5"/>
</svg>
